<?xml version="1.0" encoding="utf-8"?>
<!-- Generator: Adobe Illustrator 25.0.0, SVG Export Plug-In . SVG Version: 6.00 Build 0)  -->
<svg version="1.1" id="Layer_1" xmlns="http://www.w3.org/2000/svg" xmlns:xlink="http://www.w3.org/1999/xlink" x="0px" y="0px"
	 viewBox="0 0 1000 1000" style="enable-background:new 0 0 1000 1000;" xml:space="preserve">
<g>
	<g>
		<polygon points="0,201.6 0,799.4 0,799.4 264.5,799.4 264.5,711.3 88.2,711.3 88.2,539.2 264.5,539.2 264.5,451 88.2,451 
			88.2,289.7 264.5,289.7 264.5,201.6 0,201.6 		"/>
		<path d="M363.9,201.6L363.9,201.6v597.8h88.2V544.6h88.2v254.8h88.2V201.6v0H363.9z M540.2,456.4h-88.2V289.7h88.2V456.4z"/>
		<polygon points="1000,289.7 1000,201.6 735.9,201.6 735.9,201.6 735.5,201.6 735.5,799.4 1000,799.4 1000,711.3 824.1,711.3 
			824.1,289.7 		"/>
	</g>
</g>
</svg>
